<svg width="173" height="25" viewBox="0 0 173 25" fill="none" xmlns="http://www.w3.org/2000/svg">
<path fill-rule="evenodd" clip-rule="evenodd" d="M3.0738 0.933788C2.85809 0.986794 2.45105 1.14453 2.16927 1.28446C1.73669 1.49921 1.58193 1.61429 1.17494 2.0241C0.628347 2.57454 0.406615 2.91876 0.167072 3.58871C0.00906553 4.03062 0 4.09771 0 4.82914C0 5.56056 0.00906553 5.62765 0.167072 6.06957C0.406029 6.73785 0.627494 7.08192 1.1751 7.63534C1.6014 8.06617 1.7217 8.15368 2.21497 8.39135C2.52176 8.53923 2.94549 8.69809 3.15656 8.74443C3.69713 8.86303 4.446 8.85321 4.96396 8.72075C6.05667 8.44132 6.7848 7.90613 7.46796 6.88024C7.80248 6.3779 7.92785 6.2361 8.19555 6.05735C8.74647 5.68945 8.93396 5.6557 10.4251 5.6557C11.9163 5.6557 12.1038 5.68945 12.6547 6.05735C12.9224 6.2361 13.0478 6.3779 13.3823 6.88024C13.9146 7.67944 14.3949 8.1124 15.1323 8.45742C17.1065 9.3812 19.493 8.5276 20.4307 6.56225C20.9571 5.45908 20.9571 4.19919 20.4307 3.09602C19.493 1.13067 17.1065 0.27707 15.1323 1.20085C14.3959 1.54544 13.9145 1.97888 13.3848 2.7743C12.94 3.44227 12.6754 3.6704 12.1049 3.87806C11.8239 3.98028 11.6472 3.99729 10.6543 4.01777C8.64755 4.0591 8.2196 3.89133 7.46407 2.76684C6.78053 1.74958 6.05049 1.21541 4.96396 0.93752C4.42547 0.799778 3.62589 0.798231 3.0738 0.933788ZM17.6242 4.82914V5.62903H16.8243H16.0244V4.82914V4.02924H16.8243H17.6242V4.82914ZM9.46526 8.93779C6.99336 9.57606 5.72552 12.2701 6.81876 14.5612C7.75651 16.5266 10.143 17.3802 12.1172 16.4564C12.8545 16.1114 13.3349 15.6784 13.8672 14.8792C14.2017 14.3769 14.327 14.2351 14.5947 14.0563C15.1457 13.6884 15.3332 13.6547 16.8243 13.6547C18.3155 13.6547 18.503 13.6884 19.0539 14.0563C19.3216 14.2351 19.447 14.3769 19.7815 14.8792C20.4647 15.9051 21.1928 16.4403 22.2855 16.7197C22.8035 16.8522 23.5523 16.862 24.0929 16.7434C24.304 16.6971 24.7277 16.5382 25.0345 16.3903C25.5278 16.1527 25.6481 16.0652 26.0744 15.6343C26.622 15.0809 26.8434 14.7368 27.0824 14.0686C27.2404 13.6266 27.2495 13.5596 27.2495 12.8281C27.2495 12.0967 27.2404 12.0296 27.0824 11.5877C26.8426 10.917 26.6211 10.5734 26.0716 10.0202C25.6441 9.58981 25.5209 9.50028 25.0317 9.26452C24.7264 9.11745 24.304 8.95917 24.0929 8.91283C23.5523 8.79423 22.8035 8.80405 22.2855 8.93651C21.1942 9.21562 20.4646 9.75134 19.784 10.7733C19.3392 11.4413 19.0746 11.6694 18.5041 11.877C18.2231 11.9793 18.0464 11.9963 17.0535 12.0168C15.0467 12.0581 14.6188 11.8903 13.8633 10.7658C13.1797 9.74857 12.4497 9.21439 11.3632 8.93651C10.8082 8.79461 10.0178 8.79514 9.46526 8.93779ZM11.225 12.8281V13.628H10.4251H9.62524V12.8281V12.0282H10.4251H11.225V12.8281ZM3.0738 16.9318C2.85809 16.9848 2.45105 17.1425 2.16927 17.2824C1.73669 17.4972 1.58193 17.6123 1.17494 18.0221C0.628347 18.5725 0.406615 18.9167 0.167072 19.5867C0.00906553 20.0286 0 20.0957 0 20.8271C0 21.5585 0.00906553 21.6256 0.167072 22.0675C0.406029 22.7358 0.627494 23.0799 1.1751 23.6333C1.6014 24.0641 1.7217 24.1517 2.21497 24.3893C2.52176 24.5372 2.94549 24.6961 3.15656 24.7424C3.69713 24.861 4.446 24.8512 4.96396 24.7187C6.05667 24.4393 6.7848 23.9041 7.46796 22.8782C7.80248 22.3759 7.92785 22.2341 8.19555 22.0553C8.74647 21.6874 8.93396 21.6537 10.4251 21.6537C11.9163 21.6537 12.1038 21.6874 12.6547 22.0553C12.9224 22.2341 13.0478 22.3759 13.3823 22.8782C13.9146 23.6774 14.3949 24.1104 15.1323 24.4554C17.1065 25.3792 19.493 24.5256 20.4307 22.5602C20.9571 21.4571 20.9571 20.1972 20.4307 19.094C19.493 17.1286 17.1065 16.275 15.1323 17.1988C14.3959 17.5434 13.9145 17.9769 13.3848 18.7723C12.94 19.4402 12.6754 19.6684 12.1049 19.876C11.8239 19.9783 11.6472 19.9953 10.6543 20.0157C8.64755 20.0571 8.2196 19.8893 7.46407 18.7648C6.78053 17.7476 6.05049 17.2134 4.96396 16.9355C4.42547 16.7978 3.62589 16.7962 3.0738 16.9318ZM17.6242 20.8271V21.627H16.8243H16.0244V20.8271V20.0272H16.8243H17.6242V20.8271Z" fill="white"/>
<path d="M34.1153 5.52621H43.1838V8.08298H36.8119V11.5586H42.5446V14.1153H36.8119V19.8281H34.1153V5.52621ZM52.6173 18.5497H52.4575C52.1512 19.0425 51.7384 19.4353 51.219 19.7283C50.6997 20.0079 50.1071 20.1477 49.4413 20.1477C48.2028 20.1477 47.2773 19.7682 46.6648 19.0092C46.0655 18.2501 45.7659 17.2381 45.7659 15.973V10.0405H48.3826V15.6534C48.3826 16.3592 48.5358 16.8852 48.842 17.2314C49.1616 17.5643 49.621 17.7308 50.2203 17.7308C50.5798 17.7308 50.8928 17.6575 51.1591 17.5111C51.4387 17.3513 51.6718 17.1449 51.8582 16.8918C52.058 16.6255 52.2044 16.3192 52.2977 15.973C52.4042 15.6135 52.4575 15.2339 52.4575 14.8344V10.0405H55.0742V19.8281H52.6173V18.5497ZM59.7939 12.2777H58.0761V10.0405H59.7939V7.04429H62.4106V10.0405H64.8075V12.2777H62.4106V16.0729C62.4106 16.2993 62.4305 16.5123 62.4705 16.7121C62.5238 16.8985 62.617 17.0583 62.7501 17.1915C62.9366 17.4045 63.2029 17.5111 63.5491 17.5111C63.7755 17.5111 63.9553 17.4911 64.0885 17.4511C64.2216 17.3979 64.3481 17.3313 64.468 17.2514L65.207 19.5485C64.9008 19.695 64.5678 19.8015 64.2083 19.8681C63.8621 19.948 63.4759 19.9879 63.0498 19.9879C62.5571 19.9879 62.111 19.9147 61.7115 19.7682C61.3253 19.6084 60.999 19.3953 60.7327 19.129C60.1068 18.5298 59.7939 17.6775 59.7939 16.5722V12.2777ZM74.8059 18.5497H74.6461C74.3398 19.0425 73.927 19.4353 73.4077 19.7283C72.8883 20.0079 72.2958 20.1477 71.6299 20.1477C70.3915 20.1477 69.466 19.7682 68.8534 19.0092C68.2542 18.2501 67.9546 17.2381 67.9546 15.973V10.0405H70.5713V15.6534C70.5713 16.3592 70.7244 16.8852 71.0307 17.2314C71.3503 17.5643 71.8097 17.7308 72.4089 17.7308C72.7685 17.7308 73.0814 17.6575 73.3478 17.5111C73.6274 17.3513 73.8604 17.1449 74.0469 16.8918C74.2466 16.6255 74.3931 16.3192 74.4863 15.973C74.5928 15.6135 74.6461 15.2339 74.6461 14.8344V10.0405H77.2628V19.8281H74.8059V18.5497ZM80.8064 10.0405H83.2633V11.3988H83.4231C83.5429 11.1591 83.7027 10.9394 83.9024 10.7396C84.1022 10.5399 84.3219 10.3668 84.5616 10.2203C84.8146 10.0738 85.081 9.9606 85.3606 9.8807C85.6536 9.8008 85.9399 9.76085 86.2195 9.76085C86.5657 9.76085 86.8587 9.79415 87.0984 9.86073C87.3514 9.92731 87.5645 10.0139 87.7376 10.1204L87.0385 12.4974C86.8787 12.4175 86.6989 12.3576 86.4992 12.3176C86.3127 12.2644 86.0797 12.2377 85.8 12.2377C85.4405 12.2377 85.1142 12.311 84.8213 12.4574C84.5283 12.5906 84.2753 12.7837 84.0622 13.0367C83.8625 13.2897 83.7027 13.5893 83.5828 13.9356C83.4763 14.2685 83.4231 14.6347 83.4231 15.0342V19.8281H80.8064V10.0405ZM98.9062 17.4711C98.4534 18.2701 97.8409 18.9159 97.0685 19.4087C96.3095 19.9014 95.3773 20.1477 94.2721 20.1477C93.5263 20.1477 92.8339 20.0212 92.1947 19.7682C91.5688 19.5019 91.0228 19.1357 90.5568 18.6696C90.0907 18.2035 89.7245 17.6575 89.4582 17.0317C89.2051 16.3925 89.0786 15.6934 89.0786 14.9343C89.0786 14.2285 89.2051 13.5627 89.4582 12.9368C89.7112 12.2976 90.0641 11.745 90.5168 11.2789C90.9696 10.7995 91.5022 10.42 92.1148 10.1404C92.7407 9.86073 93.4265 9.7209 94.1722 9.7209C94.9579 9.7209 95.657 9.85407 96.2695 10.1204C96.8821 10.3734 97.3948 10.733 97.8076 11.199C98.2204 11.6518 98.5333 12.1911 98.7464 12.817C98.9595 13.4429 99.066 14.122 99.066 14.8544C99.066 14.9476 99.066 15.0275 99.066 15.0941C99.0527 15.174 99.046 15.2473 99.046 15.3138C99.0327 15.3804 99.0261 15.4537 99.0261 15.5336H91.6554C91.7086 15.9331 91.8152 16.2793 91.975 16.5722C92.1481 16.8519 92.3545 17.0916 92.5942 17.2913C92.8472 17.4778 93.1202 17.6176 93.4132 17.7108C93.7061 17.7907 94.0057 17.8307 94.312 17.8307C94.9113 17.8307 95.404 17.6975 95.7901 17.4312C96.1896 17.1515 96.5026 16.8053 96.729 16.3925L98.9062 17.4711ZM96.5292 13.6759C96.5159 13.5028 96.456 13.3097 96.3494 13.0966C96.2562 12.8836 96.1097 12.6838 95.91 12.4974C95.7236 12.311 95.4839 12.1578 95.1909 12.038C94.9113 11.9181 94.5717 11.8582 94.1722 11.8582C93.6129 11.8582 93.1202 12.018 92.6941 12.3376C92.2679 12.6572 91.9683 13.1033 91.7952 13.6759H96.5292ZM106.733 20.1477C106.121 20.1477 105.535 20.0612 104.975 19.888C104.416 19.7149 103.904 19.4553 103.437 19.109C102.971 18.7628 102.565 18.3433 102.219 17.8506C101.873 17.3446 101.6 16.7587 101.4 16.0928L103.937 15.0941C104.123 15.8132 104.449 16.4124 104.916 16.8918C105.382 17.3579 105.994 17.591 106.753 17.591C107.033 17.591 107.299 17.5577 107.552 17.4911C107.819 17.4112 108.052 17.3046 108.251 17.1715C108.464 17.025 108.631 16.8452 108.751 16.6322C108.871 16.4191 108.93 16.1727 108.93 15.8931C108.93 15.6268 108.884 15.3871 108.791 15.174C108.697 14.9609 108.538 14.7612 108.311 14.5748C108.098 14.3883 107.812 14.2086 107.452 14.0354C107.106 13.8623 106.673 13.6826 106.154 13.4961L105.275 13.1765C104.889 13.0434 104.496 12.8636 104.097 12.6372C103.71 12.4108 103.358 12.1378 103.038 11.8183C102.718 11.4987 102.452 11.1258 102.239 10.6997C102.039 10.2602 101.939 9.76751 101.939 9.22154C101.939 8.66224 102.046 8.1429 102.259 7.66351C102.485 7.1708 102.798 6.74467 103.198 6.38512C103.611 6.01226 104.097 5.72596 104.656 5.52621C105.228 5.31314 105.861 5.20661 106.553 5.20661C107.273 5.20661 107.892 5.30649 108.411 5.50623C108.944 5.69267 109.39 5.93902 109.749 6.2453C110.122 6.53826 110.422 6.86452 110.648 7.22406C110.875 7.58361 111.041 7.92318 111.148 8.24277L108.771 9.24151C108.638 8.84202 108.391 8.48247 108.032 8.16287C107.685 7.84328 107.206 7.68348 106.593 7.68348C106.008 7.68348 105.521 7.8233 105.135 8.10295C104.749 8.36928 104.556 8.72217 104.556 9.16161C104.556 9.58774 104.742 9.95394 105.115 10.2602C105.488 10.5532 106.081 10.8395 106.893 11.1191L107.792 11.4188C108.365 11.6185 108.884 11.8515 109.35 12.1179C109.829 12.3709 110.235 12.6772 110.568 13.0367C110.915 13.3963 111.174 13.8091 111.347 14.2751C111.534 14.7279 111.627 15.2539 111.627 15.8532C111.627 16.5989 111.474 17.2447 111.168 17.7907C110.875 18.3234 110.495 18.7628 110.029 19.109C109.563 19.4553 109.037 19.7149 108.451 19.888C107.865 20.0612 107.293 20.1477 106.733 20.1477ZM114.751 10.0405H117.208V11.219H117.367C117.607 10.8062 117.98 10.4533 118.486 10.1603C118.992 9.86739 119.618 9.7209 120.364 9.7209C120.989 9.7209 121.582 9.85407 122.141 10.1204C122.714 10.3734 123.213 10.733 123.639 11.199C124.079 11.6518 124.425 12.1978 124.678 12.837C124.931 13.4762 125.058 14.1753 125.058 14.9343C125.058 15.6934 124.931 16.3925 124.678 17.0317C124.425 17.6709 124.079 18.2235 123.639 18.6896C123.213 19.1423 122.714 19.5019 122.141 19.7682C121.582 20.0212 120.989 20.1477 120.364 20.1477C119.618 20.1477 118.992 20.0012 118.486 19.7083C117.98 19.4153 117.607 19.0624 117.367 18.6496H117.208L117.367 20.0478V24.1427H114.751V10.0405ZM119.824 17.7308C120.171 17.7308 120.497 17.6642 120.803 17.531C121.123 17.3979 121.402 17.2114 121.642 16.9717C121.882 16.732 122.075 16.4391 122.221 16.0928C122.368 15.7466 122.441 15.3604 122.441 14.9343C122.441 14.5082 122.368 14.122 122.221 13.7758C122.075 13.4295 121.882 13.1366 121.642 12.8969C121.402 12.6572 121.123 12.4708 120.803 12.3376C120.497 12.2044 120.171 12.1378 119.824 12.1378C119.478 12.1378 119.145 12.2044 118.826 12.3376C118.519 12.4574 118.246 12.6372 118.007 12.8769C117.767 13.1166 117.574 13.4096 117.427 13.7558C117.281 14.102 117.208 14.4949 117.208 14.9343C117.208 15.3738 117.281 15.7666 117.427 16.1128C117.574 16.4591 117.767 16.752 118.007 16.9917C118.246 17.2314 118.519 17.4178 118.826 17.551C119.145 17.6709 119.478 17.7308 119.824 17.7308ZM127.837 5.52621H130.453V9.54113L130.293 11.3189H130.453C130.733 10.8528 131.132 10.4733 131.652 10.1803C132.184 9.87404 132.777 9.7209 133.429 9.7209C134.695 9.7209 135.627 10.0938 136.226 10.8395C136.839 11.5852 137.145 12.6039 137.145 13.8956V19.8281H134.528V14.2152C134.528 13.5361 134.368 13.0234 134.049 12.6772C133.729 12.3176 133.283 12.1378 132.71 12.1378C132.351 12.1378 132.031 12.2177 131.752 12.3775C131.472 12.524 131.232 12.7304 131.033 12.9968C130.846 13.2631 130.7 13.576 130.593 13.9356C130.5 14.2818 130.453 14.6547 130.453 15.0542V19.8281H127.837V5.52621ZM149.877 17.4711C149.424 18.2701 148.811 18.9159 148.039 19.4087C147.28 19.9014 146.348 20.1477 145.243 20.1477C144.497 20.1477 143.804 20.0212 143.165 19.7682C142.539 19.5019 141.993 19.1357 141.527 18.6696C141.061 18.2035 140.695 17.6575 140.429 17.0317C140.176 16.3925 140.049 15.6934 140.049 14.9343C140.049 14.2285 140.176 13.5627 140.429 12.9368C140.682 12.2976 141.035 11.745 141.487 11.2789C141.94 10.7995 142.473 10.42 143.085 10.1404C143.711 9.86073 144.397 9.7209 145.143 9.7209C145.928 9.7209 146.628 9.85407 147.24 10.1204C147.853 10.3734 148.365 10.733 148.778 11.199C149.191 11.6518 149.504 12.1911 149.717 12.817C149.93 13.4429 150.037 14.122 150.037 14.8544C150.037 14.9476 150.037 15.0275 150.037 15.0941C150.023 15.174 150.017 15.2473 150.017 15.3138C150.003 15.3804 149.997 15.4537 149.997 15.5336H142.626C142.679 15.9331 142.786 16.2793 142.945 16.5722C143.119 16.8519 143.325 17.0916 143.565 17.2913C143.818 17.4778 144.091 17.6176 144.384 17.7108C144.677 17.7907 144.976 17.8307 145.283 17.8307C145.882 17.8307 146.374 17.6975 146.761 17.4312C147.16 17.1515 147.473 16.8053 147.699 16.3925L149.877 17.4711ZM147.5 13.6759C147.486 13.5028 147.426 13.3097 147.32 13.0966C147.227 12.8836 147.08 12.6838 146.881 12.4974C146.694 12.311 146.454 12.1578 146.161 12.038C145.882 11.9181 145.542 11.8582 145.143 11.8582C144.583 11.8582 144.091 12.018 143.665 12.3376C143.238 12.6572 142.939 13.1033 142.766 13.6759H147.5ZM153.01 10.0405H155.467V11.3988H155.626C155.746 11.1591 155.906 10.9394 156.106 10.7396C156.306 10.5399 156.525 10.3668 156.765 10.2203C157.018 10.0738 157.284 9.9606 157.564 9.8807C157.857 9.8008 158.143 9.76085 158.423 9.76085C158.769 9.76085 159.062 9.79415 159.302 9.86073C159.555 9.92731 159.768 10.0139 159.941 10.1204L159.242 12.4974C159.082 12.4175 158.902 12.3576 158.703 12.3176C158.516 12.2644 158.283 12.2377 158.003 12.2377C157.644 12.2377 157.318 12.311 157.025 12.4574C156.732 12.5906 156.479 12.7837 156.266 13.0367C156.066 13.2897 155.906 13.5893 155.786 13.9356C155.68 14.2685 155.626 14.6347 155.626 15.0342V19.8281H153.01V10.0405ZM171.11 17.4711C170.657 18.2701 170.044 18.9159 169.272 19.4087C168.513 19.9014 167.581 20.1477 166.475 20.1477C165.73 20.1477 165.037 20.0212 164.398 19.7682C163.772 19.5019 163.226 19.1357 162.76 18.6696C162.294 18.2035 161.928 17.6575 161.661 17.0317C161.408 16.3925 161.282 15.6934 161.282 14.9343C161.282 14.2285 161.408 13.5627 161.661 12.9368C161.915 12.2976 162.267 11.745 162.72 11.2789C163.173 10.7995 163.706 10.42 164.318 10.1404C164.944 9.86073 165.63 9.7209 166.376 9.7209C167.161 9.7209 167.86 9.85407 168.473 10.1204C169.085 10.3734 169.598 10.733 170.011 11.199C170.424 11.6518 170.737 12.1911 170.95 12.817C171.163 13.4429 171.269 14.122 171.269 14.8544C171.269 14.9476 171.269 15.0275 171.269 15.0941C171.256 15.174 171.249 15.2473 171.249 15.3138C171.236 15.3804 171.229 15.4537 171.229 15.5336H163.859C163.912 15.9331 164.019 16.2793 164.178 16.5722C164.351 16.8519 164.558 17.0916 164.798 17.2913C165.051 17.4778 165.324 17.6176 165.616 17.7108C165.909 17.7907 166.209 17.8307 166.515 17.8307C167.115 17.8307 167.607 17.6975 167.993 17.4312C168.393 17.1515 168.706 16.8053 168.932 16.3925L171.11 17.4711ZM168.733 13.6759C168.719 13.5028 168.659 13.3097 168.553 13.0966C168.46 12.8836 168.313 12.6838 168.113 12.4974C167.927 12.311 167.687 12.1578 167.394 12.038C167.115 11.9181 166.775 11.8582 166.376 11.8582C165.816 11.8582 165.324 12.018 164.897 12.3376C164.471 12.6572 164.172 13.1033 163.999 13.6759H168.733Z" fill="white"/>
</svg>
