<svg width="50" height="36" viewBox="0 0 50 36" fill="none" xmlns="http://www.w3.org/2000/svg">
<path fill-rule="evenodd" clip-rule="evenodd" d="M49.8331 17.0878V29.6826C49.8331 31.3851 49.1412 32.9288 48.0269 34.0431C46.9126 35.1574 45.3689 35.8493 43.6665 35.8493H6.33316C4.6307 35.8493 3.08698 35.1574 1.97267 34.0431C0.858374 32.9288 0.166504 31.3851 0.166504 29.6826V6.34932C0.166504 4.63942 0.864444 3.08962 1.9873 1.97422C3.10047 0.868516 4.63818 0.182617 6.33316 0.182617H32.928C32.5474 1.13242 32.2756 2.13762 32.1281 3.18262H6.33316C6.06638 3.18262 5.80752 3.21552 5.56028 3.27742L24.4462 20.1836L24.4475 20.1848C24.7627 20.4637 25.2364 20.4639 25.5517 20.1851L25.5534 20.1836L34.2779 12.3694C34.8469 13.1974 35.5093 13.9562 36.2499 14.6306L34.1477 16.5134L46.7319 30.4813C46.798 30.2263 46.8331 29.9587 46.8331 29.6826V17.8877C47.8782 17.7402 48.8833 17.4684 49.8331 17.0878ZM31.913 18.515L44.6788 32.6844C44.3611 32.7915 44.0208 32.8493 43.6665 32.8493H6.33316C6.01578 32.8493 5.70962 32.8029 5.42086 32.7163L18.8957 19.2414L22.4491 22.4223L22.4531 22.4258C23.9055 23.7168 26.0941 23.7168 27.5465 22.4258L27.5507 22.4221L31.913 18.515ZM16.6571 17.2374L3.29954 30.5949C3.21293 30.3062 3.1665 30 3.1665 29.6826V6.34932C3.1665 5.98692 3.22704 5.63912 3.33882 5.31522L16.6571 17.2374Z" fill="white"/>
</svg>
