<svg width="16" height="17" viewBox="0 0 16 17" fill="none" xmlns="http://www.w3.org/2000/svg">
<path fill-rule="evenodd" clip-rule="evenodd" d="M15.115 0.0732445H0.885002C0.768708 0.0729808 0.653508 0.095692 0.546016 0.140074C0.438523 0.184456 0.340857 0.249634 0.258625 0.331867C0.176392 0.414099 0.111214 0.511766 0.0668318 0.619258C0.0224498 0.72675 -0.000261436 0.841951 2.27036e-06 0.958244V15.1882C2.27036e-06 15.6782 0.395002 16.0732 0.885002 16.0732H8.544V9.87624H6.454V7.47624H8.544V5.69324C8.544 3.62424 9.814 2.50424 11.648 2.50424C12.523 2.50424 13.291 2.55724 13.515 2.60024V4.75524H12.224C11.221 4.75524 11.04 5.22424 11.04 5.92824V7.47524H13.419L13.109 9.87524H11.04V16.0732H15.115C15.605 16.0732 16 15.6782 16 15.1882V0.958244C16.0003 0.841951 15.9776 0.72675 15.9332 0.619258C15.8888 0.511766 15.8236 0.414099 15.7414 0.331867C15.6591 0.249634 15.5615 0.184456 15.454 0.140074C15.3465 0.095692 15.2313 0.0729808 15.115 0.0732445Z" fill="white"/>
</svg>
