<svg width="16" height="17" viewBox="0 0 16 17" fill="none" xmlns="http://www.w3.org/2000/svg">
<path fill-rule="evenodd" clip-rule="evenodd" d="M14.816 0.0732422C15.466 0.0732422 16 0.585242 16 1.22524V14.9212C16 15.5512 15.467 16.0732 14.816 16.0732H1.184C0.534 16.0732 0 15.5502 0 14.9212V1.22524C0 0.585242 0.533 0.0732422 1.184 0.0732422H14.816ZM3.563 5.03324C3.92296 5.02356 4.26493 4.87376 4.5161 4.61573C4.76728 4.35771 4.90783 4.01183 4.90783 3.65174C4.90783 3.29165 4.76728 2.94578 4.5161 2.68775C4.26493 2.42973 3.92296 2.27993 3.563 2.27024C2.795 2.27024 2.187 2.88924 2.187 3.64624C2.187 4.41424 2.795 5.03324 3.563 5.03324ZM13.632 9.52324C13.632 7.46524 13.195 5.88624 10.784 5.88624C9.632 5.88624 8.864 6.51624 8.544 7.11324H8.512V6.06824H6.24V13.7052H8.608V9.92924C8.608 8.93724 8.789 7.96624 10.027 7.96624C11.243 7.96624 11.264 9.10824 11.264 9.99324V13.7052H13.632V9.52324ZM2.368 13.7062H4.747V6.06824H2.368V13.7062Z" fill="white"/>
</svg>
