<svg width="20" height="17" viewBox="0 0 20 17" fill="none" xmlns="http://www.w3.org/2000/svg">
<path d="M20.0001 1.96678C19.2758 2.28863 18.4986 2.50586 17.6801 2.60247C18.514 2.10278 19.1546 1.3114 19.4568 0.368627C18.6752 0.830165 17.8118 1.16863 16.8918 1.34832C16.1546 0.563704 15.1048 0.0732422 13.9429 0.0732422C11.7115 0.0732422 9.90414 1.88124 9.90414 4.11201C9.90414 4.42832 9.93922 4.73724 10.0088 5.03263C6.6506 4.86278 3.6746 3.25478 1.6826 0.811704C1.33491 1.40863 1.13491 2.10278 1.13491 2.84247C1.13491 4.24555 1.84875 5.48063 2.93183 6.20555C2.26968 6.18401 1.64691 6.00247 1.10229 5.70093V5.75016C1.10229 7.70832 2.49306 9.34093 4.34168 9.71201C4.00322 9.80432 3.64629 9.85355 3.27706 9.85355C3.01675 9.85355 2.76445 9.82893 2.51829 9.78155C3.03152 11.3852 4.52445 12.5532 6.2906 12.5865C4.90906 13.6695 3.16752 14.3157 1.27522 14.3157C0.949062 14.3157 0.627216 14.2972 0.311523 14.2603C2.09983 15.4049 4.22291 16.0732 6.50414 16.0732C13.9331 16.0732 17.9964 9.9194 17.9964 4.58093C17.9964 4.40616 17.9915 4.2314 17.9841 4.05786C18.7737 3.48863 19.458 2.77786 20.0001 1.96678Z" fill="white"/>
</svg>
